<svg width="64" height="65" viewBox="0 0 64 65" fill="none" xmlns="http://www.w3.org/2000/svg">
<rect y="0.499969" width="64" height="64" rx="32" fill="white"/>
<path fill-rule="evenodd" clip-rule="evenodd" d="M30.0835 3.52465C22.8573 4.10113 16.4524 7.00498 11.5141 11.9438C6.82364 16.6347 4.05398 22.3082 3.15339 29.0704C2.94887 30.6055 2.94887 34.4124 3.15339 35.9475C4.04699 42.6571 6.84672 48.4066 11.4721 53.0305C16.1014 57.6584 21.843 60.4525 28.5604 61.3466C30.0959 61.5511 33.9041 61.5511 35.4396 61.3466C42.1513 60.4533 47.9026 57.6544 52.5279 53.0305C57.1572 48.4027 59.9522 42.6628 60.8466 35.9475C61.0511 34.4124 61.0511 30.6055 60.8466 29.0704C59.9555 22.3795 57.1523 16.6068 52.5715 12.0294C47.8919 7.35308 42.1234 4.53515 35.4849 3.68252C34.474 3.55275 31.0036 3.45124 30.0835 3.52465ZM28.1039 24.2747C32.7063 28.1758 36.5203 31.3972 36.5795 31.4331C36.6446 31.4727 37.7921 30.9901 39.4834 30.2116L42.2797 28.9247L42.3357 26.9989C42.3666 25.9398 42.3918 23.7448 42.3918 22.1211V19.1689L43.7248 18.557C44.458 18.2205 45.0782 17.9655 45.1031 17.9903C45.1458 18.033 45.0077 34.4923 44.8897 43.4203L44.8349 47.5622L44.5487 47.6986L44.2625 47.835L35.8953 40.7425C31.2934 36.8415 27.4793 33.6202 27.4196 33.584C27.3534 33.5439 26.2198 34.0207 24.5157 34.8054L21.7202 36.0926L21.6643 37.8909C21.6334 38.8799 21.6082 41.0752 21.6082 42.7691V45.849L20.2752 46.4609C19.542 46.7974 18.9216 47.0523 18.8967 47.0274C18.8538 46.9845 18.9929 30.4364 19.1108 21.5547L19.1652 17.4551L19.4284 17.3238C19.5732 17.2516 19.7017 17.19 19.7139 17.187C19.726 17.1841 23.5016 20.3734 28.1039 24.2747ZM21.8328 23.0264C21.752 23.6151 21.7673 28.592 21.8497 28.592C21.8888 28.592 22.4615 28.3402 23.1224 28.0325L24.3239 27.4731L26.0761 28.9354L27.8284 30.3978L28.1467 30.2681C28.734 30.0287 29.9557 29.4454 29.9557 29.4041C29.9557 29.3582 21.9766 22.6313 21.922 22.6313C21.9027 22.6313 21.8626 22.8091 21.8328 23.0264ZM21.7495 30.3938C21.7186 31.2443 21.6934 32.224 21.6934 32.5709C21.6934 33.1465 21.7072 33.1972 21.8514 33.1515C22.1114 33.069 24.9672 31.739 25.0402 31.6665C25.0946 31.6122 21.9553 28.8474 21.8393 28.8474C21.8207 28.8474 21.7803 29.5433 21.7495 30.3938ZM31.1056 31.7639C30.5903 32.0046 30.1495 32.217 30.1261 32.2359C30.0824 32.271 30.2541 32.4249 31.2578 33.2502L31.8359 33.7255L32.8528 33.2662C33.4121 33.0136 33.8707 32.7828 33.8718 32.7533C33.8749 32.6757 32.2675 31.3626 32.1453 31.3428C32.0888 31.3337 31.621 31.5231 31.1056 31.7639ZM40.6041 32.5561C39.7381 32.9551 38.9984 33.3126 38.9604 33.3506C38.9225 33.3886 39.6247 34.0417 40.5211 34.8019C41.4174 35.5623 42.1633 36.1716 42.1787 36.1561C42.2483 36.0855 42.3233 31.8279 42.2548 31.8292C42.2131 31.83 41.4702 32.1571 40.6041 32.5561ZM35.109 35.0758C34.5937 35.3124 34.14 35.5362 34.1008 35.5731C34.0616 35.61 35.8372 37.1617 38.0466 39.0213C40.256 40.8808 42.0896 42.3765 42.1212 42.3449C42.2065 42.2599 42.2439 36.4259 42.1592 36.4259C42.1195 36.4259 41.5428 36.6764 40.8779 36.9824L39.6689 37.5388L37.9308 36.0883C36.9749 35.2905 36.1598 34.6395 36.1194 34.6416C36.079 34.6437 35.6243 34.8391 35.109 35.0758Z" fill="black"/>
</svg>
